<svg width="946" height="227" viewBox="0 0 946 227" fill="none" xmlns="http://www.w3.org/2000/svg">
<path d="M78.5669 90.9536L87.9927 180.62H0.0639648L10.9985 76.5942L78.5669 90.9536Z" fill="#92ADBA"/>
<mask id="mask0_2_3243" style="mask-type:alpha" maskUnits="userSpaceOnUse" x="73" y="46" width="93" height="63">
<path d="M158.862 108.017L78.5732 90.9531L73.9248 46.7197H165.307L158.862 108.017Z" fill="url(#paint0_linear_2_3243)"/>
</mask>
<g mask="url(#mask0_2_3243)">
<path d="M158.862 108.017L78.5732 90.9531L73.9248 46.7197H165.307L158.862 108.017Z" fill="#92ADBA"/>
</g>
<path d="M73.9121 46.7197H14.1338L16.3145 25.9697L70.5195 14.4502L73.9121 46.7197Z" fill="#4A6C7F"/>
<mask id="mask1_2_3243" style="mask-type:alpha" maskUnits="userSpaceOnUse" x="141" y="42" width="806" height="180">
<path d="M557.804 192.856L141.537 104.387V42.0671H946.511V221.275H557.804V192.856Z" fill="black"/>
</mask>
<g mask="url(#mask1_2_3243)" fill="#F1F6F9">
<path d="M719.477 84.0789C728.401 84.0789 735.775 86.2475 741.6 90.5847C746.159 93.8132 749.442 98.0978 751.454 103.436V85.7517H769.859V176.651C769.859 190.283 765.645 201.003 757.217 208.81C748.913 216.618 737.449 220.521 722.824 220.521C710.925 220.521 701.071 217.794 693.263 212.342C685.579 207.013 680.931 199.887 679.32 190.965H697.54C698.779 195.054 701.505 198.276 705.719 200.631C710.057 202.985 715.821 204.163 723.009 204.163C732.305 204.163 739.246 201.87 743.832 197.285C748.417 192.7 750.71 185.884 750.71 176.838V161.584C748.508 166.547 745.039 170.64 740.299 173.863C734.102 177.953 726.666 179.998 717.99 179.998C709.686 179.998 702.373 178.014 696.052 174.049C689.731 170.083 684.835 164.568 681.365 157.505C677.894 150.317 676.16 141.952 676.16 132.41C676.16 122.744 677.957 114.255 681.551 106.943C685.146 99.6316 690.165 93.9927 696.61 90.0271C703.179 86.0616 710.801 84.0789 719.477 84.0789ZM288.542 83.8943C298.333 83.8943 306.885 86.0011 314.198 90.2146C321.51 94.3041 327.15 100.005 331.116 107.316C335.206 114.628 337.25 123.117 337.25 132.783C337.25 142.325 335.206 150.876 331.116 158.435C327.15 165.871 321.51 171.757 314.198 176.094C306.885 180.308 298.333 182.415 288.542 182.415C278.874 182.415 270.384 180.308 263.072 176.094C255.759 171.757 250.058 165.871 245.968 158.435C241.878 150.876 239.834 142.325 239.833 132.783C239.833 123.117 241.878 114.628 245.968 107.316C250.182 100.005 255.883 94.3041 263.072 90.2146C270.384 86.0012 278.874 83.8943 288.542 83.8943ZM387.601 83.8943C399.995 83.8943 409.291 86.8063 415.488 92.6306C421.685 98.3312 424.784 106.759 424.784 117.912V180.555H408.238C407.618 178.201 407.184 175.599 406.936 172.749C406.846 170.683 406.79 168.291 406.765 165.574C404.424 170.425 400.95 174.304 396.339 177.21C390.638 180.68 383.697 182.415 375.517 182.415C365.85 182.415 358.166 180.06 352.464 175.351C346.763 170.518 343.913 164.012 343.913 155.833C343.913 147.406 346.887 140.776 352.836 135.943C358.91 130.986 367.585 127.64 378.864 125.905L405.821 121.572V117.168C405.821 111.096 404.272 106.573 401.173 103.598C398.199 100.5 393.427 98.9509 386.858 98.9509C380.537 98.9509 375.455 100.19 371.613 102.669C367.895 105.147 365.726 108.679 365.106 113.264H346.701C347.568 104.342 351.597 97.2162 358.786 91.8875C365.974 86.5588 375.579 83.8944 387.601 83.8943ZM918.202 85.7517H945.159V101.18H918.202V152.113C918.202 157.07 919.503 160.726 922.106 163.081C924.709 165.435 928.922 166.613 934.748 166.613C936.978 166.613 938.962 166.427 940.697 166.055C942.432 165.684 943.919 165.249 945.159 164.754V180.369C943.795 180.988 941.874 181.483 939.396 181.855C936.917 182.227 934.128 182.413 931.03 182.413C919.999 182.413 911.881 179.873 906.675 174.792C901.594 169.587 899.053 161.965 899.053 151.927V101.18H880.09V85.7517H899.053V59.408L918.202 55.3357V85.7517ZM173.29 164.384H240.589V180.556H153.583V46.7166H173.29V164.384ZM567.479 164.384H634.779V180.556H547.772V46.7166H567.479V164.384ZM807.801 102.102C810.778 97.1987 814.744 93.1739 819.7 90.0291C826.145 85.9395 833.644 83.8943 842.196 83.8943C852.359 83.8944 860.353 86.7446 866.178 92.4451C872.003 98.1456 874.916 105.706 874.916 115.124V180.556H855.767V119.585C855.767 113.017 854.094 108.121 850.748 104.899C847.525 101.677 842.691 100.066 836.247 100.066C830.669 100.066 825.711 101.306 821.374 103.784C817.16 106.262 813.813 109.671 811.334 114.009C808.98 118.346 807.801 123.489 807.801 129.437V180.556H788.467V46.7166H807.801V102.102ZM496.005 83.8943C506.168 83.8943 514.163 86.7446 519.988 92.4451C525.813 98.1455 528.726 105.705 528.726 115.123V180.555H509.577V119.585C509.577 113.017 507.904 108.121 504.557 104.899C501.335 101.677 496.501 100.066 490.056 100.066C484.479 100.066 479.521 101.305 475.183 103.784C470.969 106.262 467.623 109.67 465.144 114.008C462.789 118.345 461.612 123.488 461.612 129.436V180.555H442.277V85.7527H460.682V103.719C463.744 98.0765 468.019 93.5122 473.51 90.0281C479.955 85.9386 487.454 83.8943 496.005 83.8943ZM663.874 180.555H644.539V85.7527H663.874V180.555ZM381.838 138.917C375.517 139.908 370.745 141.582 367.523 143.936C364.425 146.291 362.875 149.699 362.875 154.16C362.876 158.497 364.301 161.781 367.151 164.011C370.125 166.118 374.402 167.172 379.979 167.172C387.415 167.172 393.551 165.375 398.384 161.781C403.342 158.187 405.821 153.664 405.821 148.212V135.131L381.838 138.917ZM288.542 99.6941C280.114 99.6942 273.173 102.669 267.719 108.617C262.39 114.565 259.725 122.559 259.725 132.596C259.725 139.412 260.903 145.361 263.258 150.442C265.737 155.523 269.145 159.488 273.483 162.339C277.945 165.189 282.964 166.614 288.542 166.614C294.367 166.614 299.387 165.189 303.601 162.339C307.939 159.488 311.347 155.523 313.826 150.442C316.305 145.361 317.544 139.412 317.544 132.596C317.544 122.435 314.817 114.441 309.364 108.617C304.034 102.669 297.093 99.6941 288.542 99.6941ZM723.567 99.6941C715.139 99.6941 708.446 102.606 703.489 108.43C698.531 114.131 696.052 122.062 696.052 132.224C696.052 142.138 698.531 150.007 703.489 155.832C708.57 161.532 715.325 164.382 723.752 164.383C732.056 164.383 738.687 161.471 743.645 155.646C748.727 149.822 751.268 141.828 751.268 131.667C751.268 121.753 748.727 113.945 743.645 108.245C738.687 102.544 731.995 99.6941 723.567 99.6941ZM664.989 67.1638H643.609V45.4148H664.989V67.1638Z" fill="#4A6C7F"/>
</g>
<mask id="mask2_2_3243" style="mask-type:alpha" maskUnits="userSpaceOnUse" x="141" y="104" width="417" height="89">
<path d="M557.804 192.858L141.538 104.389V192.858H557.804Z" fill="#E21C1C"/>
</mask>
<g mask="url(#mask2_2_3243)">
<path d="M288.546 83.8965C298.337 83.8965 306.89 86.0033 314.202 90.2168C321.515 94.3063 327.154 100.007 331.12 107.318C335.21 114.63 337.255 123.119 337.255 132.785C337.255 142.327 335.21 150.878 331.12 158.438C327.154 165.873 321.515 171.759 314.202 176.097C306.89 180.31 298.337 182.417 288.546 182.417C278.879 182.417 270.389 180.31 263.076 176.097C255.764 171.759 250.063 165.873 245.973 158.438C241.883 150.878 239.838 142.327 239.838 132.785C239.838 123.119 241.883 114.63 245.973 107.318C250.187 100.007 255.888 94.3063 263.076 90.2168C270.389 86.0034 278.879 83.8965 288.546 83.8965ZM387.608 83.8965C400.002 83.8965 409.298 86.8084 415.495 92.6328C421.692 98.3334 424.79 106.761 424.79 117.914V180.559H406.757V165.607C404.416 170.444 400.946 174.313 396.346 177.213C390.645 180.683 383.703 182.417 375.523 182.417C365.856 182.417 358.172 180.063 352.471 175.354C346.77 170.52 343.919 164.014 343.919 155.835C343.919 147.408 346.894 140.778 352.843 135.945C358.916 130.988 367.592 127.642 378.87 125.907L405.827 121.575V117.171C405.827 111.099 404.278 106.575 401.18 103.601C398.205 100.502 393.433 98.9531 386.864 98.9531C380.544 98.9532 375.462 100.193 371.62 102.671C367.902 105.149 365.733 108.682 365.113 113.267H346.708C347.576 104.344 351.604 97.2184 358.792 91.8896C365.981 86.5609 375.586 83.8965 387.608 83.8965ZM173.296 164.386H240.596V180.559H153.59V46.7188H173.296V164.386ZM496.015 83.8965C506.178 83.8966 514.172 86.7468 519.997 92.4473C525.822 98.1478 528.734 105.708 528.734 115.126V180.559H509.586V119.587C509.586 113.019 507.913 108.124 504.566 104.902C501.344 101.68 496.51 100.068 490.065 100.068C484.488 100.068 479.53 101.308 475.192 103.786C470.978 106.265 467.632 109.673 465.153 114.011C462.798 118.348 461.62 123.491 461.62 129.439V180.559H442.286V85.7559H460.691V103.721C463.753 98.0785 468.028 93.5151 473.519 90.0312C479.963 85.9417 487.463 83.8965 496.015 83.8965ZM381.845 138.92C375.524 139.911 370.752 141.584 367.529 143.938C364.431 146.293 362.882 149.701 362.882 154.162C362.882 158.499 364.308 161.784 367.158 164.015C370.133 166.121 374.408 167.175 379.985 167.175C387.422 167.175 393.557 165.378 398.391 161.784C403.348 158.19 405.827 153.667 405.827 148.214V135.133L381.845 138.92ZM288.546 99.6973C280.118 99.6974 273.178 102.672 267.725 108.62C262.395 114.569 259.73 122.562 259.73 132.6C259.731 139.415 260.908 145.363 263.263 150.444C265.742 155.525 269.149 159.492 273.487 162.342C277.949 165.192 282.969 166.617 288.546 166.617C294.371 166.617 299.391 165.192 303.605 162.342C307.943 159.492 311.351 155.525 313.83 150.444C316.309 145.363 317.549 139.415 317.549 132.6C317.549 122.438 314.822 114.445 309.368 108.62C304.039 102.672 297.098 99.6973 288.546 99.6973Z" fill="#92ADBA"/>
</g>
<defs>
<linearGradient id="paint0_linear_2_3243" x1="73.9248" y1="72.8448" x2="160.254" y2="84.612" gradientUnits="userSpaceOnUse">
<stop stop-color="#4A6C7F"/>
<stop offset="1" stop-color="#AEC4CF" stop-opacity="0"/>
</linearGradient>
</defs>
</svg>
